<svg version="1.2" xmlns="http://www.w3.org/2000/svg" viewBox="15 0 65 96" width="65" height="96">
	<title>3994376_arrow_back_left_navigation_previous_icon</title>
	<style>
		.s0 { fill: #1e90ff } 
	</style>
	<g id="Layer 1">
		<path class="s0" d="m36.5 48l40.6-33.8c1.6-1.3 2.6-3.3 2.8-5.4 0.2-2.1-0.5-4.2-1.8-5.8-1.4-1.6-3.3-2.6-5.4-2.8-2.1-0.2-4.2 0.4-5.9 1.8l-47.9 39.9c-0.9 0.7-1.6 1.7-2.1 2.7-0.5 1.1-0.7 2.2-0.7 3.4 0 1.2 0.2 2.3 0.7 3.4 0.5 1 1.2 2 2.1 2.7l47.9 39.9c1.7 1.4 3.8 2 5.9 1.9 2.1-0.2 4-1.3 5.4-2.9 1.3-1.6 2-3.7 1.8-5.8-0.2-2.1-1.2-4.1-2.8-5.4z"/>
	</g>
</svg>