<?xml version="1.0" ?><svg viewBox="0 0 448 512" xmlns="http://www.w3.org/2000/svg"><path fill="#ffffff" d="M 432 80 h -82.4 l -34 -56.8 C 306.1 8.8 291.4 0 274.6 0 H 173.4 C 156.6 0 141 8.8 132.4 23.3 L 98.4 80 H 16 C 7.1 80 0 87.1 0 96 v 16 C 0 120.9 7.1 128 16 128 H 32 v 320 c 0 35.4 28.6 64 64 64 h 256 c 35.4 0 64 -28.6 64 -64 V 128 h 16 C 440.9 128 448 120.9 448 112 V 96 C 448 87.1 440.9 80 432 80 z M 171.9 50.9 C 172.9 49.1 174.9 48 177 48 h 94 c 2.1 0 4.1 1.1 5.1 2.9 L 293.6 80 H 154.4 L 171.9 50.9 z M 352 464 H 96 c -8.8 0 -16 -7.2 -16 -16 V 128 h 288 v 320 C 368 456.8 360.8 464 352 464 z M 224 416 c 8.8 0 16 -7.2 16 -16 V 192 c 0 -8.8 -7.2 -16 -16 -16 S 208 183.2 208 192 v 208 C 208 408.8 215.2 416 224 416 z M 144 416 C 152.8 416 160 408.8 160 400 V 192 c 0 -8.8 -7.2 -16 -16 -16 S 128 183.2 128 192 v 208 C 128 408.8 135.2 416 144 416 z M 304 416 c 8.8 0 16 -7.2 16 -16 V 192 c 0 -8.8 -7.2 -16 -16 -16 S 288 183.2 288 192 v 208 C 288 408.8 295.2 416 304 416 z"/></svg>